#!OML:ASF X:\für Bonn\!DataBase\2005_08_10_Bjorn_Final\c3d\bjorn.ASF
:FULLY-SPECIFIED
:DEGREES
32
root 3.36395 18.705 4.65579 -171.49 -10.5531 181.366
lowerback 3.67841 -1.24037 1.57812
upperback 10.88 -2.85494 -1.68736
thorax 9.28135 -1.69532 -2.87737
lowerneck -2.89409 2.43757 -1.99116
upperneck 2.17886 3.37524 -2.78315
head 1.16677 1.60939 -0.463501
rclavicle 1.74931e-014 -5.56597e-015
rhumerus -29.6532 -22.2394 -82.5848
rradius 24.8036
rwrist 10.6299
rhand -11.2 14.8785
rfingers 7.12502
rthumb 14.8278 -14.571
lclavicle 1.74931e-014 -5.56597e-015
lhumerus -11.2337 -27.2312 80.5276
lradius 58.0919
lwrist -15.7519
lhand -22.4493 -9.18173
lfingers 7.12502
lthumb 3.97489 20.7609
rfemur -39.4991 -7.26788 22.8491
rtibia 45.9401
rfoot -12.7443 16.3037
rtoes 0.0589221
lfemur -17.2227 5.81317 -17.3029
ltibia 38.6124
lfoot -24.316 -8.07664
ltoes -7.07061
33
root 3.35069 18.6924 4.62217 -171.41 -10.7278 181.078
lowerback 3.76086 -1.22637 1.72756
upperback 11.0088 -2.87043 -1.64012
thorax 9.37573 -1.70075 -2.91501
lowerneck -3.17971 2.36223 -1.94852
upperneck 1.89492 3.27549 -2.91642
head 1.12939 1.55987 -0.511556
rclavicle -4.45278e-014 -1.59028e-015
rhumerus -29.5055 -22.6978 -82.4342
rradius 24.6984
rwrist 10.961
rhand -11.2959 14.9436
rfingers 7.12502
rthumb 14.7354 -14.5126
lclavicle -4.45278e-014 -1.59028e-015
lhumerus -11.3774 -27.3321 80.8718
lradius 58.125
lwrist -16.0182
lhand -22.9985 -9.19763
lfingers 7.12502
lthumb 3.44454 20.7543
rfemur -39.4405 -7.27008 22.5376
rtibia 45.8736
rfoot -12.5341 16.0886
rtoes 0.605193
lfemur -17.199 5.61827 -17.623
ltibia 38.7249
lfoot -24.5123 -8.12202
ltoes -6.86716
34
root 3.33685 18.681 4.58657 -171.319 -10.8874 180.809
lowerback 3.81472 -1.21356 1.90731
upperback 11.131 -2.88644 -1.59098
thorax 9.47889 -1.70257 -2.96858
lowerneck -3.48169 2.29475 -1.86179
upperneck 1.65155 3.18469 -3.11639
head 1.1097 1.51201 -0.587103
rclavicle 1.94809e-014 1.90833e-014
rhumerus -29.3674 -23.2428 -82.2768
rradius 24.5991
rwrist 11.3728
rhand -11.3653 15.0375
rfingers 7.12502
rthumb 14.6686 -14.4236
lclavicle 1.94809e-014 1.90833e-014
lhumerus -11.5938 -27.433 81.2302
lradius 58.1691
lwrist -16.2417
lhand -23.5811 -9.20845
lfingers 7.12502
lthumb 2.88196 20.7518
rfemur -39.3896 -7.2578 22.2375
rtibia 45.8342
rfoot -12.4481 15.9097
rtoes 0.559866
lfemur -17.1724 5.37993 -17.9259
ltibia 38.8263
lfoot -24.7026 -8.11896
ltoes -6.60878
35
root 3.32347 18.6689 4.54985 -171.214 -11.0226 180.523
lowerback 3.85862 -1.1924 2.07584
upperback 11.2543 -2.89164 -1.54474
thorax 9.59057 -1.69958 -3.01917
lowerneck -3.82212 2.23193 -1.73101
upperneck 1.43218 3.09824 -3.3843
head 1.10624 1.46343 -0.690742
rclavicle 2.78299e-014 1.86858e-014
rhumerus -29.1985 -23.7712 -82.1353
rradius 24.4816
rwrist 11.7656
rhand -11.4448 15.1379
rfingers 7.12502
rthumb 14.592 -14.3288
lclavicle 2.78299e-014 1.86858e-014
lhumerus -11.8251 -27.5297 81.5927
lradius 58.216
lwrist -16.4633
lhand -24.1911 -9.22119
lfingers 7.12502
lthumb 2.29275 20.7462
rfemur -39.3475 -7.22157 21.9175
rtibia 45.8295
rfoot -12.4429 15.7423
rtoes 0.0856416
lfemur -17.145 5.23469 -18.2463
ltibia 38.9117
lfoot -24.9133 -8.17302
ltoes -6.56897
36
root 3.30929 18.6585 4.5116 -171.112 -11.1614 180.264
lowerback 3.88681 -1.17229 2.29972
upperback 11.3797 -2.89913 -1.50896
thorax 9.71211 -1.69159 -3.11279
lowerneck -4.15552 2.17295 -1.54179
upperneck 1.20618 3.01142 -3.66531
head 1.10064 1.41425 -0.808913
rclavicle 1.78906e-014 1.66979e-014
rhumerus -29.0465 -24.3298 -82.0303
rradius 24.4138
rwrist 12.1246
rhand -11.4486 15.2135
rfingers 7.12502
rthumb 14.5883 -14.2535
lclavicle 1.78906e-014 1.66979e-014
lhumerus -12.1001 -27.6586 81.9309
lradius 58.2608
lwrist -16.5973
lhand -24.8584 -9.25773
lfingers 7.12502
lthumb 1.64837 20.7156
rfemur -39.3135 -7.21984 21.6325
rtibia 45.8557
rfoot -12.4584 15.5616
rtoes -0.584183
lfemur -17.1127 5.10072 -18.5347
ltibia 38.9727
lfoot -25.0975 -8.23053
ltoes -6.67361
37
root 3.2956 18.6502 4.47238 -171.006 -11.2754 180.004
lowerback 3.92885 -1.17511 2.48806
upperback 11.4798 -2.93414 -1.44654
thorax 9.79749 -1.70091 -3.15687
lowerneck -4.40096 2.1495 -1.43132
upperneck 0.934849 2.96784 -3.94848
head 1.06458 1.38673 -0.915148
rclavicle 4.01545e-014 -7.95139e-015
rhumerus -28.9287 -24.7406 -81.9055
rradius 24.3801
rwrist 12.4049
rhand -11.4042 15.2728
rfingers 7.12502
rthumb 14.6311 -14.1911
lclavicle 4.01545e-014 -7.95139e-015
lhumerus -12.4936 -27.6946 82.3254
lradius 58.3179
lwrist -16.6762
lhand -25.5433 -9.30439
lfingers 7.12502
lthumb 0.986848 20.6731
rfemur -39.2902 -7.16416 21.336
rtibia 45.9137
rfoot -12.523 15.2748
rtoes -1.55186
lfemur -17.0537 4.954 -18.8225
ltibia 39.0112
lfoot -25.2566 -8.25284
ltoes -6.79962
38
root 3.28121 18.6432 4.43185 -170.907 -11.3739 179.753
lowerback 3.99046 -1.20733 2.66153
upperback 11.5596 -3.00676 -1.36007
thorax 9.84715 -1.73122 -3.16601
lowerneck -4.61121 2.15701 -1.42726
upperneck 0.646399 2.96546 -4.21207
head 1.01526 1.3793 -0.997115
rclavicle 2.04748e-014 3.02153e-014
rhumerus -28.8053 -24.9986 -81.7739
rradius 24.3324
rwrist 12.5932
rhand -11.3259 15.3289
rfingers 7.12502
rthumb 14.7065 -14.1295
lclavicle 2.04748e-014 3.02153e-014
lhumerus -12.9689 -27.6642 82.7322
lradius 58.3683
lwrist -16.6081
lhand -26.2829 -9.32355
lfingers 7.12502
lthumb 0.27251 20.656
rfemur -39.2717 -7.12182 21.0507
rtibia 46.0005
rfoot -12.677 14.9485
rtoes -2.91454
lfemur -16.9524 4.84073 -19.0957
ltibia 39.0224
lfoot -25.3936 -8.34327
ltoes -6.89846
39
root 3.26616 18.6367 4.38968 -170.8 -11.4511 179.504
lowerback 4.04216 -1.24408 2.84242
upperback 11.6218 -3.08134 -1.28033
thorax 9.8818 -1.76041 -3.18582
lowerneck -4.79326 2.16988 -1.37537
upperneck 0.383866 2.96662 -4.50172
head 0.970871 1.37304 -1.09563
rclavicle 4.31363e-014 -1.66979e-014
rhumerus -28.7186 -25.2135 -81.6669
rradius 24.3387
rwrist 12.7071
rhand -11.2112 15.3124
rfingers 7.12502
rthumb 14.8171 -14.1379
lclavicle 4.31363e-014 -1.66979e-014
lhumerus -13.5392 -27.6114 83.1388
lradius 58.4188
lwrist -16.509
lhand -27.0448 -9.38324
lfingers 7.12502
lthumb -0.463338 20.596
rfemur -39.2634 -7.05283 20.7533
rtibia 46.1013
rfoot -12.8059 14.6234
rtoes -4.13707
lfemur -16.8642 4.73846 -19.3766
ltibia 39.0238
lfoot -25.4803 -8.40526
ltoes -7.05021
40
root 3.25148 18.6305 4.34647 -170.714 -11.518 179.246
lowerback 4.15022 -1.28288 3.02134
upperback 11.646 -3.14961 -1.20251
thorax 9.83981 -1.78673 -3.20063
lowerneck -4.88764 2.17829 -1.34951
upperneck 0.109312 2.95817 -4.76703
head 0.906611 1.3637 -1.18335
rclavicle -3.97569e-014 -5.96354e-015
rhumerus -28.7048 -25.3267 -81.5536
rradius 24.3438
rwrist 12.7167
rhand -11.1229 15.3165
rfingers 7.12502
rthumb 14.9021 -14.1275
lclavicle -3.97569e-014 -5.96354e-015
lhumerus -14.2282 -27.5867 83.5815
lradius 58.4452
lwrist -16.3377
lhand -27.833 -9.45149
lfingers 7.12502
lthumb -1.22464 20.5247
rfemur -39.2288 -6.96812 20.4385
rtibia 46.2194
rfoot -12.9885 14.2634
rtoes -5.44213
lfemur -16.747 4.68688 -19.6579
ltibia 39.0165
lfoot -25.5269 -8.50717
ltoes -7.28638
41
root 3.23607 18.6246 4.30202 -170.609 -11.5531 178.98
lowerback 4.28026 -1.32834 3.18307
upperback 11.6147 -3.21266 -1.12311
thorax 9.72186 -1.81052 -3.19893
lowerneck -4.87922 2.19007 -1.32525
upperneck -0.177182 2.94932 -5.03687
head 0.821246 1.35604 -1.27333
rclavicle 2.28602e-014 -3.18055e-015
rhumerus -28.7644 -25.4707 -81.3757
rradius 24.3298
rwrist 12.7793
rhand -11.0226 15.3398
rfingers 7.12502
rthumb 14.9988 -14.097
lclavicle 2.28602e-014 -3.18055e-015
lhumerus -15.0616 -27.5202 84.0823
lradius 58.4641
lwrist -16.1679
lhand -28.5562 -9.55418
lfingers 7.12502
lthumb -1.92313 20.4169
rfemur -39.2071 -6.8756 20.1104
rtibia 46.3451
rfoot -13.2011 13.9334
rtoes -6.68688
lfemur -16.6665 4.8353 -19.9501
ltibia 39.0153
lfoot -25.4924 -8.70616
ltoes -7.7237
42
root 3.2211 18.6188 4.25594 -170.512 -11.5701 178.714
lowerback 4.41821 -1.38707 3.31242
upperback 11.5692 -3.29101 -1.02653
thorax 9.58395 -1.84581 -3.1599
lowerneck -4.85828 2.21132 -1.29811
upperneck -0.445629 2.951 -5.3509
head 0.740789 1.35251 -1.37791
rclavicle 2.20651e-014 9.14409e-015
rhumerus -28.8156 -25.4812 -81.2122
rradius 24.3274
rwrist 12.7392
rhand -10.8891 15.3449
rfingers 7.12502
rthumb 15.1273 -14.0822
lclavicle 2.20651e-014 9.14409e-015
lhumerus -15.9513 -27.3703 84.611
lradius 58.4628
lwrist -16.0151
lhand -29.1908 -9.63181
lfingers 7.12502
lthumb -2.53594 20.3329
rfemur -39.1662 -6.79054 19.7866
rtibia 46.4906
rfoot -13.4865 13.602
rtoes -8.28198
lfemur -16.5728 5.05397 -20.2315
ltibia 39.0145
lfoot -25.4607 -8.99996
ltoes -7.97665
